# xmcd
#
# Track frame offsets: 
#        150
#        13607
#        33553
#        44534
#        59590
#        76973
#        97820
#        122405
#        135235
#        170635
#        193567
#        203443
#        220591
#        235616
#        263219
#        282413
#
# Disc length: 4084 seconds
#
# Revision: 3
# Processed by: cddbd v1.5.2PL0 Copyright (c) Steve Scherf et al.
# Submitted via: ExactAudioCopy v1.0b4
#
DISCID=d30ff210
DTITLE=Climax Blues Band - The Harvest Years 69-72
DYEAR=1991
DGENRE=Blues Rock
TTITLE0=Please Don't Help Me
TTITLE1=Hey Baby, Everything's Gonna Be Allright Yeh Yeh Yeh
TTITLE2=Everyday
TTITLE3=Towards the Sun
TTITLE4=You Make Me Sick
TTITLE5=Reap What I've Sowed
TTITLE6=Shake Your Love
TTITLE7=Looking for My Baby
TTITLE8=Flight
TTITLE9=Mole on the Dole
TTITLE10=That's All
TTITLE11=Insurance
TTITLE12=Wee Baby Blues
TTITLE13=Crazy 'Bout My Baby
TTITLE14=All Right Blue?
TTITLE15=Cut You Loose
EXTD=YEAR: 1972
EXTT0=
EXTT1=
EXTT2=
EXTT3=
EXTT4=
EXTT5=
EXTT6=
EXTT7=
EXTT8=
EXTT9=
EXTT10=
EXTT11=
EXTT12=
EXTT13=
EXTT14=
EXTT15=
PLAYORDER=
